<?xml version="1.0"?><svg xmlns="http://www.w3.org/2000/svg"  viewBox="0 0 50 50" width="50" height="50" fill="#212529">    <path d="M 25 2 C 12.309295 2 2 12.309295 2 25 C 2 37.690705 12.309295 48 25 48 C 37.690705 48 48 37.690705 48 25 C 48 12.309295 37.690705 2 25 2 z M 25 4 C 36.609824 4 46 13.390176 46 25 C 46 36.609824 36.609824 46 25 46 C 13.390176 46 4 36.609824 4 25 C 4 13.390176 13.390176 4 25 4 z M 20.640625 18 L 13 32 L 29.359375 32 L 37 18 L 20.640625 18 z M 21.826172 20 L 33.630859 20 L 28.173828 30 L 16.369141 30 L 21.826172 20 z"/></svg>